HIERARCHY
ROOT Hips
{
	OFFSET	0.00	0.00	0.00
	CHANNELS 6 Xposition Yposition Zposition Zrotation Xrotation Yrotation
	JOINT Spine
	{
		OFFSET	 0.00	0.01	 0.00
		CHANNELS 3 Zrotation Xrotation Yrotation
		JOINT Spine1
		{
			OFFSET	 0.00	 2.45913012437421	 0.00
			CHANNELS 3 Zrotation Xrotation Yrotation
            JOINT Neck
            {
                OFFSET	 0.00	 2.48462964506057	 0.00
                CHANNELS 3 Zrotation Xrotation Yrotation
                JOINT Head
                {
                    OFFSET	 0.00	 0.927524780924562	 0.00
                    CHANNELS 3 Zrotation Xrotation Yrotation
                    End Site 
                    {
                        OFFSET	 0.00	 1.14999962169752	 0.00
                    }
                }
            }
			JOINT LeftShoulder
			{
				OFFSET	 0.00	 2.48462964506057	 0.00
				CHANNELS 3 Zrotation Xrotation Yrotation
				JOINT LeftUpArm
				{
					OFFSET	 0.00	 1.24881979654096	 0.00
					CHANNELS 3 Zrotation Xrotation Yrotation
					JOINT LeftForeArm
					{
						OFFSET	 0.00	2.59758046908119	 0.00
						CHANNELS 3 Zrotation Xrotation Yrotation
						JOINT LeftHand
						{
							OFFSET	 0.00	2.45542024364365	 0.00
							CHANNELS 3 Zrotation Xrotation Yrotation
							JOINT LeftHandThumb 
							{
								OFFSET	 0.00	0.00	 0.00
								CHANNELS 3 Zrotation Xrotation Yrotation
								End Site
								{
									OFFSET	 0.00	0.00	1.00000003353624
								}
							}
							JOINT L_Wrist_End 
							{
								OFFSET	 0.00	0.99999967115358	 0.00
								CHANNELS 3 Zrotation Xrotation Yrotation
								End Site 
								{
									OFFSET	 0.00	 0.00	 0.00
								}
							}
						}
					}
				}
			}
			JOINT RightShoulder
			{
				OFFSET	 0.00	 2.48462964506057	 0.00
				CHANNELS 3 Zrotation Xrotation Yrotation
				JOINT RightUpArm
				{
					OFFSET	 0.00	 1.24881979654096	 0.00
					CHANNELS 3 Zrotation Xrotation Yrotation
					JOINT RightForeArm
					{
						OFFSET	 0.00	2.59758046908119	 0.00
						CHANNELS 3 Zrotation Xrotation Yrotation
						JOINT RightHand
						{
							OFFSET	 0.00	2.45542024364365	 0.00
							CHANNELS 3 Zrotation Xrotation Yrotation
							JOINT RightHandThumb 
							{
								OFFSET	 0.00	0.00	 0.00
								CHANNELS 3 Zrotation Xrotation Yrotation
								End Site
								{
									OFFSET	 0.00	0.00	1.00000003353624
								}
							}
							JOINT R_Wrist_End 
							{
								OFFSET	 0.00	0.99999967115358	 0.00
								CHANNELS 3 Zrotation Xrotation Yrotation
								End Site 
								{
									OFFSET	 0.00	 0.00	 0.00
								}
							}
						}
					}
				}
			}
		}
	}
	JOINT LeftUpLeg
	{
		OFFSET	 1.2719394002717	 0.00	 0.00
		CHANNELS 3 Zrotation Xrotation Yrotation
		JOINT LeftLowLeg
		{
			OFFSET	 0.00	-4.3429100912261	 0.00
			CHANNELS 3 Zrotation Xrotation Yrotation
			JOINT LeftFoot
			{
				OFFSET	 0.00	-4.48767017425826	 0.00
				CHANNELS 3 Zrotation Xrotation Yrotation
				JOINT LeftToeBase
                {
                    OFFSET	 0.00	0.00	 1.51507020887566
                    CHANNELS 3 Zrotation Xrotation Yrotation
                    End Site 
                    {
                        OFFSET	 0.00	0.00	 0.75000010571191
                    }
                }
			}
		}
	}
	JOINT RightUpLeg
	{
		OFFSET	 -1.2719393604653	 0.00	 0.00
		CHANNELS 3 Zrotation Xrotation Yrotation
		JOINT RightLowLeg
		{
			OFFSET	 0.00	-4.3429100912261	 0.00
			CHANNELS 3 Zrotation Xrotation Yrotation
			JOINT RightFoot
			{
				OFFSET	 0.00	-4.48767017425826	 0.00
				CHANNELS 3 Zrotation Xrotation Yrotation
				JOINT RightToeBase
                {
                    OFFSET	 0.00	0.00	 1.51507020887566
                    CHANNELS 3 Zrotation Xrotation Yrotation
                    End Site 
                    {
                        OFFSET	 0.00	0.00	 0.749999965609858
                    }
                }   
			}
		}
	}
}
MOTION 
Frames:	15 
Frame Time: 0.02 
  2.8348199462890626 7.880960083007812 9.816669921875 -156.034 79.8461 160.799 -1.15418 -10.3113 2.72643 -3.46519 11.669 4.75111 23.9928 26.0466 -29.1977 26.1436 -39.8994 30.2405 -104.0576 -5.2892 4.80456 -35.1992 24.3205 18.0825 0.0 116.077 0.0 32.237 -8.80051 8.44811 0.0 0.0 0.0 0.0 0.0 0.0 108.6186 6.26193 -12.2388 -6.89581 51.1843 6.41736 0.0 57.4863 0.0 -15.032 3.13908 -23.0606 0.0 0.0 0.0 0.0 0.0 0.0 3.13521 -10.0296 0.72131 0.0 7.36448 0.0 10.2711 7.87602 1.28752 0.0 -34.2079 0.0 1.27229 -6.48998 -4.75161 0.0 4.64751 0.0 9.88972 11.65827 -7.02833 0.0 -26.5107 0.0 
  2.8347698974609377 7.877899780273437 9.81572998046875 -155.643 79.8759 160.928 -1.10345 -10.3072 2.66131 -3.6126 11.6751 4.66337 23.9059 26.0016 -29.183 26.3123 -39.8628 30.0407 -104.1446 -5.12226 5.08472 -35.1916 24.8385 18.9097 0.0 115.901 0.0 31.7695 -8.49388 9.46153 0.0 0.0 0.0 0.0 0.0 0.0 108.4594 6.35254 -11.5378 -6.24672 50.2978 6.62178 0.0 53.1283 0.0 -14.4777 2.2957 -27.4339 0.0 0.0 0.0 0.0 0.0 0.0 3.10562 -10.074 0.303694 0.0 7.36794 0.0 10.2699 7.89635 1.18538 0.0 -34.1581 0.0 1.27545 -6.28071 -5.27888 0.0 4.52098 0.0 9.92958 11.6055 -6.99465 0.0 -26.5083 0.0 
  2.8339498901367186 7.873900146484375 9.815239868164063 -155.265 79.8877 161.138 -1.2568 -10.2998 2.49885 -3.40136 11.5535 4.54201 23.68 26.2485 -29.0133 26.4182 -40.0705 29.6622 -104.4584 -5.03827 5.46614 -35.0936 25.441 19.7684 0.0 115.617 0.0 31.7738 -8.35132 9.60955 0.0 0.0 0.0 0.0 0.0 0.0 108.3693 6.52745 -12.413 -7.3547 48.9676 8.34189 0.0 48.7125 0.0 -13.2211 1.77152 -30.5672 0.0 0.0 0.0 0.0 0.0 0.0 3.07548 -10.1533 -0.17812 0.0 7.38244 0.0 10.2881 7.94977 1.07161 0.0 -34.206802 0.0 1.28366 -6.09217 -5.83787 0.0 4.42616 0.0 9.94214 11.53149 -7.00472 0.0 -26.5026 0.0 
  2.833080139160156 7.866170043945313 9.814080200195313 -154.828 79.9041 161.266 -1.22497 -10.3034 2.41769 -3.55379 11.4488 4.43763 23.5037 26.4221 -28.8199 26.6159 -40.128 29.3596 -104.446 -4.91175 5.2735 -35.4173 25.5317 21.1563 0.0 115.402 0.0 31.7175 -8.43506 9.87738 0.0 0.0 0.0 0.0 0.0 0.0 108.5039 6.60009 -12.6679 -7.52706 47.7449 8.18824 0.0 44.4224 0.0 -11.5765 0.999184 -32.6381 0.0 0.0 0.0 0.0 0.0 0.0 3.06252 -10.1956 -0.619636 0.0 7.3942 0.0 10.3007 7.95545 0.94046 0.0 -34.2464 0.0 1.30735 -5.9141 -6.31167 0.0 4.40667 0.0 9.95537 11.3918495 -7.0648 0.0 -26.501999 0.0 
  2.832130126953125 7.8587799072265625 9.812730102539062 -154.422 79.928 161.406 -1.42492 -10.4694 2.19973 -3.24431 11.5879 4.28867 22.8369 26.6362 -28.2168 26.7911 -40.1935 28.7572 -104.7418 -4.88705 5.2389 -35.5717 25.7898 22.2082 0.0 115.173 0.0 31.4493 -8.70956 10.0147 0.0 0.0 0.0 0.0 0.0 0.0 108.1831 6.96913 -12.5108 -6.67466 46.4277 6.59326 0.0 40.4371 0.0 -9.36928 -0.34983 -33.2483 0.0 0.0 0.0 0.0 0.0 0.0 3.04409 -10.2521 -1.09536 0.0 7.45331 0.0 10.2963 7.94186 0.854215 0.0 -34.266502 0.0 1.32638 -5.7894 -6.53269 0.0 4.50442 0.0 10.0698 11.15034 -7.31126 0.0 -26.435799 0.0 
  2.8311898803710935 7.849299926757812 9.811290283203125 -153.935 80.023 161.423 -1.44239 -10.5162 2.17595 -3.34119 11.6122 4.26673 22.5368 26.8044 -27.9399 27.0412 -40.199 28.2665 -104.7886 -4.69899 5.29786 -35.7794 25.9492 22.9902 0.0 115.068 0.0 30.1704 -9.11539 10.3924 0.0 0.0 0.0 0.0 0.0 0.0 107.9699 7.15815 -11.9978 -5.04652 45.0095 3.32559 0.0 36.8778 0.0 -7.3349 -1.54882 -32.1945 0.0 0.0 0.0 0.0 0.0 0.0 3.01976 -10.2147 -1.5701 0.0 7.51642 0.0 10.2806 7.90361 0.817891 0.0 -34.214 0.0 1.34143 -5.58018 -6.77873 0.0 4.58619 0.0 10.1485 10.93456 -7.49202 0.0 -26.4053 0.0 
  2.8297698974609373 7.838989868164062 9.810269775390625 -153.533 80.0718 161.448 -1.68648 -10.6934 2.03085 -3.00567 11.8136 4.21112 22.0305 26.9483 -27.4846 27.1977 -40.2969 27.866 -105.1301 -4.74648 5.37112 -35.8879 26.2574 23.6612 0.0 114.965 0.0 29.1317 -9.12447 11.211 0.0 0.0 0.0 0.0 0.0 0.0 107.5871 7.52486 -11.6477 -3.53384 43.2839 -0.233057 0.0 34.4315 0.0 -4.47624 -3.20149 -30.118 0.0 0.0 0.0 0.0 0.0 0.0 3.01391 -10.2145 -1.95479 0.0 7.59488 0.0 10.261 7.86459 0.766267 0.0 -34.251602 0.0 1.37941 -5.41085 -6.98205 0.0 4.62929 0.0 10.1785 10.76416 -7.69591 0.0 -26.379799 0.0 
  2.828699951171875 7.8263397216796875 9.809320068359375 -152.983 80.2108 161.338 -1.74915 -10.7175 2.0632 -3.0545 11.9222 4.26702 21.9549 26.9745 -27.4811 27.4182 -40.3661 27.6399 -105.284 -4.60856 5.40036 -35.9733 26.4209 24.4581 0.0 114.942 0.0 28.6147 -8.72715 11.9606 0.0 0.0 0.0 0.0 0.0 0.0 107.0413 7.71175 -10.6667 -0.792541 41.382 -5.18255 0.0 33.1668 0.0 -2.11038 -4.50034 -28.6966 0.0 0.0 0.0 0.0 0.0 0.0 2.99546 -10.1028 -2.47178 0.0 7.66789 0.0 10.2352 7.83361 0.823739 0.0 -34.2454 0.0 1.4043 -5.13134 -7.2733 0.0 4.67131 0.0 10.1694 10.60685 -7.80416 0.0 -26.3943 0.0 
  2.827090148925781 7.8156500244140625 9.807860107421876 -152.664 80.2614 161.379 -1.90378 -10.8549 2.05474 -2.90457 12.1396 4.32063 21.4807 26.9043 -27.1524 27.8342 -40.4081 27.2011 -105.5134 -4.52444 5.29199 -36.0926 26.4505 25.2918 0.0 115.012 0.0 28.4755 -8.45317 12.5995 0.0 0.0 0.0 0.0 0.0 0.0 107.5146 7.71942 -11.9316 -1.79688 39.2919 -7.89479 0.0 33.1775 0.0 -0.306449 -5.64161 -26.4717 0.0 0.0 0.0 0.0 0.0 0.0 2.97957 -10.0948 -2.95561 0.0 7.76467 0.0 10.2074 7.78731 0.932759 0.0 -34.239098 0.0 1.42103 -5.00047 -7.65847 0.0 4.77825 0.0 10.1525 10.43866 -7.7444 0.0 -26.3771 0.0 
  2.8248199462890624 7.801389770507813 9.8060400390625 -152.033 80.4311 161.167 -2.17369 -10.9729 1.91192 -2.52467 12.5517 4.28714 20.8459 26.8415 -26.667 28.2093 -40.5454 26.8436 -105.8536 -4.53333 5.11653 -36.1777 26.396 26.0105 0.0 115.151 0.0 28.4207 -8.40859 12.8065 0.0 0.0 0.0 0.0 0.0 0.0 107.0028 7.77023 -11.7232 -0.0970846 37.4768 -12.0276 0.0 34.1073 0.0 0.709377 -6.07689 -25.5816 0.0 0.0 0.0 0.0 0.0 0.0 2.97331 -9.94044 -3.48565 0.0 7.84767 0.0 10.1542 7.71538 1.01022 0.0 -34.212097 0.0 1.46232 -4.67772 -7.97639 0.0 4.82014 0.0 10.1505 10.24582 -7.81247 0.0 -26.3323 0.0 
  2.8219699096679687 7.78864990234375 9.804089965820312 -151.71 80.4852 161.165 -2.39601 -11.1566 1.7946 -2.23312 12.8689 4.25768 20.2276 26.8038 -26.158 28.5008 -40.6213 26.4794 -106.0876 -4.46888 5.04314 -36.2623 26.1399 26.4234 0.0 115.35 0.0 27.9772 -8.66688 12.5869 0.0 0.0 0.0 0.0 0.0 0.0 106.8729 7.73016 -11.8056 0.975243 35.6773 -15.5858 0.0 35.8777 0.0 1.36777 -5.85741 -23.8855 0.0 0.0 0.0 0.0 0.0 0.0 2.97799 -9.9117 -3.80367 0.0 7.94942 0.0 10.1191 7.61734 1.01077 0.0 -34.2243 0.0 1.49985 -4.50874 -8.18845 0.0 4.86904 0.0 10.1823 10.066521 -7.87144 0.0 -26.302 0.0 
  2.8192098999023436 7.776209716796875 9.802420043945313 -151.272 80.5672 161.015 -2.48387 -11.2117 1.72539 -2.13683 12.9986 4.2217 19.6887 26.954 -25.638 28.7937 -40.7946 26.164 -106.253 -4.36832 4.97572 -36.2937 25.7324 26.8157 0.0 115.491 0.0 27.6871 -8.81538 12.3804 0.0 0.0 0.0 0.0 0.0 0.0 107.0308 7.47208 -12.1017 1.67695 34.135 -18.5317 0.0 38.2321 0.0 2.82546 -5.16205 -21.3086 0.0 0.0 0.0 0.0 0.0 0.0 3.00048 -9.8348 -4.104 0.0 8.0262 0.0 10.0607 7.51827 1.0052 0.0 -34.1967 0.0 1.55327 -4.28818 -8.42791 0.0 4.85493 0.0 10.1577 9.96417 -7.90884 0.0 -26.344 0.0 
  2.8167599487304686 7.759829711914063 9.800490112304688 -151.081 80.5932 161.148 -2.82868 -11.5231 1.35805 -1.55065 13.4273 3.98535 18.5335 27.0753 -24.5297 28.9435 -40.8988 25.6048 -106.6418 -4.51462 4.80466 -36.273 25.2805 27.0522 0.0 115.603 0.0 27.3834 -8.85475 12.0554 0.0 0.0 0.0 0.0 0.0 0.0 107.7954 7.147 -14.5503 -0.457017 32.9698 -18.6118 0.0 41.2794 0.0 4.25324 -4.51205 -16.7773 0.0 0.0 0.0 0.0 0.0 0.0 2.99912 -9.76478 -4.48947 0.0 8.02187 0.0 10.0189 7.45236 1.04957 0.0 -34.1735 0.0 1.58524 -4.08302 -8.87039 0.0 4.80919 0.0 10.1246 9.848761 -7.77731 0.0 -26.3171 0.0 
  2.813009948730469 7.7506298828125 9.799030151367187 -151.037 80.6337 161.164 -2.8937 -11.5417 1.31107 -1.48413 13.4331 3.96083 17.9717 27.2508 -23.9659 28.9856 -41.0086 25.3058 -106.7275 -4.47162 4.84076 -36.2173 24.8189 27.2344 0.0 115.684 0.0 27.2833 -8.79891 12.0788 0.0 0.0 0.0 0.0 0.0 0.0 108.2438 6.68996 -15.4986 -0.64652 32.0519 -19.9733 0.0 44.5884 0.0 5.74537 -3.7818 -12.3809 0.0 0.0 0.0 0.0 0.0 0.0 3.02072 -9.67095 -4.53086 0.0 7.99936 0.0 9.98427 7.38921 1.0225 0.0 -34.1669 0.0 1.61299 -4.00663 -8.76672 0.0 4.87241 0.0 10.1439 9.68863 -7.92155 0.0 -26.2498 0.0 
  2.809320068359375 7.743280029296875 9.79791015625 -150.988 80.67 161.064 -3.06151 -11.6531 1.1214 -1.17436 13.6119 3.83472 17.0985 27.409 -23.0537 28.9443 -41.0524 24.9337 -106.914 -4.60511 4.82236 -36.1459 24.4069 27.2721 0.0 115.726 0.0 27.1999 -8.73565 12.1841 0.0 0.0 0.0 0.0 0.0 0.0 106.6259 6.94534 -12.152 4.77468 31.2625 -25.6566 0.0 47.7802 0.0 6.577 -3.70087 -9.19701 0.0 0.0 0.0 0.0 0.0 0.0 3.06278 -9.58016 -4.39087 0.0 7.9988 0.0 9.97171 7.30126 0.942595 0.0 -34.183 0.0 1.63882 -3.99763 -8.58474 0.0 5.00376 0.0 10.1436 9.55917 -8.02894 0.0 -26.2417 0.0 
